# xmcd CD database file
#
# Track frame offsets:
#	150
#	16532
#	32787
#
# Disc length: 664 seconds
#
# Revision: 2
# Processed by: cddbd v1.5.2PL0 Copyright (c) Steve Scherf et al.
# Submitted via: CDex 1.70beta2
#
DISCID=14029603
DTITLE=Beautiful South, The - Dream A Little Dream
DYEAR=1995
DGENRE=Pop
TTITLE0=Dream A Little Dream
TTITLE1=Les Yeux Ouverts
TTITLE2=Good As Gold (Stupid as Mud)
EXTD=YEAR: 1995
EXTT0=
EXTT1=
EXTT2=
PLAYORDER=
